<svg xmlns="http://www.w3.org/2000/svg" xmlns:xlink="http://www.w3.org/1999/xlink" width="100" zoomAndPan="magnify" viewBox="120 120 120 125" height="70" preserveAspectRatio="xMidYMid meet" version="1.0"><defs><g/><clipPath id="id1"><path d="M 112.5 128 L 262.5 128 L 262.5 197 L 112.5 197 Z M 112.5 128 " clip-rule="nonzero"/></clipPath></defs><g clip-path="url(#id1)"><path fill="#2e8db6" d="M 123.421875 128.972656 C 144.230469 128.972656 152.824219 129.535156 175.714844 164.28125 C 175.714844 164.28125 188.058594 181.082031 203.042969 180.226562 C 203.042969 180.226562 213.3125 182.496094 222.457031 160.863281 C 231.613281 139.222656 239.105469 127.261719 262.410156 130.390625 C 262.410156 130.390625 251.589844 140.070312 250.0625 144.203125 C 248.535156 148.332031 223.757812 179.085938 210.210938 181.21875 C 212.199219 181.789062 214.976562 182.496094 219.679688 181.644531 C 219.679688 181.644531 224.535156 181.933594 225.300781 184.351562 C 220.519531 183.925781 204.703125 188.769531 201.378906 191.332031 C 198.054688 193.90625 186.644531 200.75 177.5 193.765625 C 179.457031 193.472656 190.40625 191.402344 195.472656 186.390625 C 186.949219 186.492188 172.808594 183.640625 162.257812 173.535156 C 151.722656 163.425781 126.195312 132.953125 112.597656 130.675781 L 123.421875 128.972656 " fill-opacity="1" fill-rule="nonzero"/></g><g fill="#000000" fill-opacity="1"><g transform="translate(133.086196, 237.716204)"><g><path d="M 3.6875 -12.09375 C 3.6875 -13.132812 3.960938 -13.882812 4.515625 -14.34375 C 5.078125 -14.8125 6.035156 -15.046875 7.390625 -15.046875 L 15.71875 -15.046875 C 17.070312 -15.046875 18.023438 -14.8125 18.578125 -14.34375 C 19.140625 -13.882812 19.421875 -13.132812 19.421875 -12.09375 L 19.421875 -11.421875 L 16.0625 -10.875 L 16.0625 -12.4375 L 7.046875 -12.4375 L 7.046875 -9.09375 L 15.71875 -9.09375 C 17.070312 -9.09375 18.023438 -8.863281 18.578125 -8.40625 C 19.140625 -7.945312 19.421875 -7.195312 19.421875 -6.15625 L 19.421875 -3.078125 C 19.421875 -1.972656 19.144531 -1.179688 18.59375 -0.703125 C 18.050781 -0.234375 17.09375 0 15.71875 0 L 7.390625 0 C 6.015625 0 5.050781 -0.234375 4.5 -0.703125 C 3.957031 -1.179688 3.6875 -1.972656 3.6875 -3.078125 L 3.6875 -4.234375 L 7.046875 -4.78125 L 7.046875 -2.734375 L 16.0625 -2.734375 L 16.0625 -6.625 L 7.390625 -6.625 C 6.015625 -6.625 5.050781 -6.859375 4.5 -7.328125 C 3.957031 -7.804688 3.6875 -8.597656 3.6875 -9.703125 Z M 3.6875 -12.09375 "/></g></g></g><g fill="#000000" fill-opacity="1"><g transform="translate(158.988437, 237.716204)"><g><path d="M 7.046875 -15.046875 L 7.046875 -2.734375 L 18.390625 -2.734375 L 18.390625 0 L 3.6875 0 L 3.6875 -15.046875 Z M 7.046875 -15.046875 "/></g></g></g><g fill="#000000" fill-opacity="1"><g transform="translate(180.994743, 237.716204)"><g><path d="M 7.046875 0 L 3.6875 0 L 3.6875 -15.046875 L 7.046875 -15.046875 Z M 7.046875 0 "/></g></g></g><g fill="#000000" fill-opacity="1"><g transform="translate(194.52567, 237.716204)"><g><path d="M 19.421875 -5.328125 L 19.421875 -3.078125 C 19.421875 -1.972656 19.144531 -1.179688 18.59375 -0.703125 C 18.050781 -0.234375 17.09375 0 15.71875 0 L 7.390625 0 C 6.015625 0 5.050781 -0.234375 4.5 -0.703125 C 3.957031 -1.179688 3.6875 -1.972656 3.6875 -3.078125 L 3.6875 -12.09375 C 3.6875 -13.132812 3.960938 -13.882812 4.515625 -14.34375 C 5.078125 -14.8125 6.035156 -15.046875 7.390625 -15.046875 L 15.71875 -15.046875 C 17.070312 -15.046875 18.023438 -14.8125 18.578125 -14.34375 C 19.140625 -13.882812 19.421875 -13.132812 19.421875 -12.09375 L 19.421875 -10.328125 L 16.0625 -9.78125 L 16.0625 -12.4375 L 7.046875 -12.4375 L 7.046875 -2.734375 L 16.0625 -2.734375 L 16.0625 -5.875 Z M 19.421875 -5.328125 "/></g></g></g><g fill="#000000" fill-opacity="1"><g transform="translate(220.086167, 237.716204)"><g><path d="M 3.6875 0 L 3.6875 -15.046875 L 7.046875 -15.046875 L 7.046875 -8.90625 L 14.328125 -15.046875 L 18.84375 -15.046875 L 10.34375 -8 L 20.609375 0 L 15.484375 0 L 7.046875 -6.65625 L 7.046875 0 Z M 3.6875 0 "/></g></g></g></svg>