<svg height="88.173" viewBox="0 0 88.173 88.173" width="88.173" xmlns="http://www.w3.org/2000/svg"><circle cx="44.087" cy="44.086" fill="#0084cc" r="43.587"/><g fill="#fff"><path d="m71.015 39.152a29.449 29.449 0 0 1 -52.741 18.019c14.83 2.689 26.9-.484 29.426-18.019 1.082-7.512 23.315-2.663 23.315 0z"/><path d="m51.414 38.872a34.822 34.822 0 0 1 -31.853-13.327c-1.287 3.583-.641 12.535 6.1 16.167 0 0-2.366.272-6.036-2.121 1.648 7.555 6.12 10.2 9.114 10.439a7.229 7.229 0 0 1 -5.059-.282c2.516 6.913 7.263 8 7.263 8 6.455-.716 15.071 3.793 22.131 2.982 6.408-.74 18.066-29.916 12.541-26.63a35.669 35.669 0 0 1 -14.201 4.772z"/><circle cx="59.257" cy="37.393" r="11.881"/><path d="m61.712 32.585c-9.691-2.688-16.52 6.429-6.83 9.117 8.224 2.282 16.375-2.827 19.986-11.758a15.008 15.008 0 0 1 -13.156 2.641z"/><path d="m60.673 30.684c-9.888-1.139-15.726 8.98-5.838 10.119 8.391.967 15.952-5.385 18.616-14.813a15.628 15.628 0 0 1 -12.778 4.694z"/></g><path d="m44.087 88.173a44.087 44.087 0 1 1 44.086-44.087 44.136 44.136 0 0 1 -44.086 44.087zm0-87.173a43.087 43.087 0 1 0 43.086 43.086 43.135 43.135 0 0 0 -43.086-43.086z" fill="#00257d"/></svg>